<svg width="486" height="155" viewBox="0 0 486 155" fill="none" xmlns="http://www.w3.org/2000/svg">
<rect width="486" height="155" fill="#0D6EFD"/>
<path d="M59.0469 110H44.1875L44.2812 99.0312H59.0469C62.7344 99.0312 65.8438 98.2031 68.375 96.5469C70.9062 94.8594 72.8125 92.4062 74.0938 89.1875C75.4062 85.9688 76.0625 82.0781 76.0625 77.5156V74.1875C76.0625 70.6875 75.6875 67.6094 74.9375 64.9531C74.2188 62.2969 73.1406 60.0625 71.7031 58.25C70.2656 56.4375 68.5 55.0781 66.4062 54.1719C64.3125 53.2344 61.9062 52.7656 59.1875 52.7656H43.9062V41.75H59.1875C63.75 41.75 67.9219 42.5312 71.7031 44.0938C75.5156 45.625 78.8125 47.8281 81.5938 50.7031C84.375 53.5781 86.5156 57.0156 88.0156 61.0156C89.5469 64.9844 90.3125 69.4062 90.3125 74.2812V77.5156C90.3125 82.3594 89.5469 86.7812 88.0156 90.7812C86.5156 94.7812 84.375 98.2188 81.5938 101.094C78.8438 103.938 75.5469 106.141 71.7031 107.703C67.8906 109.234 63.6719 110 59.0469 110ZM52.1562 41.75V110H38.0938V41.75H52.1562ZM100.531 41.75H125.984C131.203 41.75 135.688 42.5312 139.438 44.0938C143.219 45.6562 146.125 47.9688 148.156 51.0312C150.188 54.0938 151.203 57.8594 151.203 62.3281C151.203 65.9844 150.578 69.125 149.328 71.75C148.109 74.3438 146.375 76.5156 144.125 78.2656C141.906 79.9844 139.297 81.3594 136.297 82.3906L131.844 84.7344H109.719L109.625 73.7656H126.078C128.547 73.7656 130.594 73.3281 132.219 72.4531C133.844 71.5781 135.062 70.3594 135.875 68.7969C136.719 67.2344 137.141 65.4219 137.141 63.3594C137.141 61.1719 136.734 59.2812 135.922 57.6875C135.109 56.0938 133.875 54.875 132.219 54.0312C130.562 53.1875 128.484 52.7656 125.984 52.7656H114.594V110H100.531V41.75ZM138.688 110L123.125 79.5781L137.984 79.4844L153.734 109.344V110H138.688ZM199.719 41.75H213.734V86.8438C213.734 92.0938 212.609 96.5156 210.359 100.109C208.141 103.703 205.062 106.406 201.125 108.219C197.219 110.031 192.719 110.938 187.625 110.938C182.531 110.938 178 110.031 174.031 108.219C170.094 106.406 167 103.703 164.75 100.109C162.531 96.5156 161.422 92.0938 161.422 86.8438V41.75H175.484V86.8438C175.484 89.9062 175.969 92.4062 176.938 94.3438C177.906 96.2812 179.297 97.7031 181.109 98.6094C182.953 99.5156 185.125 99.9688 187.625 99.9688C190.188 99.9688 192.359 99.5156 194.141 98.6094C195.953 97.7031 197.328 96.2812 198.266 94.3438C199.234 92.4062 199.719 89.9062 199.719 86.8438V41.75ZM251.891 85.6719H234.5V74.7031H251.891C254.578 74.7031 256.766 74.2656 258.453 73.3906C260.141 72.4844 261.375 71.2344 262.156 69.6406C262.938 68.0469 263.328 66.25 263.328 64.25C263.328 62.2188 262.938 60.3281 262.156 58.5781C261.375 56.8281 260.141 55.4219 258.453 54.3594C256.766 53.2969 254.578 52.7656 251.891 52.7656H239.375V110H225.312V41.75H251.891C257.234 41.75 261.812 42.7188 265.625 44.6562C269.469 46.5625 272.406 49.2031 274.438 52.5781C276.469 55.9531 277.484 59.8125 277.484 64.1562C277.484 68.5625 276.469 72.375 274.438 75.5938C272.406 78.8125 269.469 81.2969 265.625 83.0469C261.812 84.7969 257.234 85.6719 251.891 85.6719ZM307.156 53.4219L288.594 110H273.641L299 41.75H308.516L307.156 53.4219ZM322.578 110L303.969 53.4219L302.469 41.75H312.078L337.578 110H322.578ZM321.734 84.5938V95.6094H285.688V84.5938H321.734ZM387.781 99.0312V110H353.422V99.0312H387.781ZM357.969 41.75V110H343.906V41.75H357.969Z" fill="white"/>
<path d="M407.422 41.75L420.266 65.5625L433.109 41.75H449.188L429.359 75.5938L449.703 110H433.484L420.266 85.7188L407.047 110H390.734L411.125 75.5938L391.25 41.75H407.422Z" fill="black"/>
</svg>
