<svg xmlns="http://www.w3.org/2000/svg" width="400" height="300" viewBox="0 0 400 300"><rect width="100%" height="100%" fill="#333333"/><path fill="#FFF" d="M107.75 130.09h7.56v40.49h-7.56v-17.7H88.74v17.7h-7.56v-40.49h7.56v17.42h19.01v-17.42Zm20.95 22.82h13.05q0-1.34-.38-2.53-.38-1.19-1.14-2.09-.75-.89-1.91-1.41-1.17-.52-2.71-.52-2.99 0-4.71 1.71-1.73 1.71-2.2 4.84Zm17.64 4.17h-17.78q.17 2.22.78 3.83.62 1.61 1.63 2.66 1 1.05 2.39 1.56 1.39.52 3.07.52t2.89-.39q1.22-.39 2.13-.87.91-.47 1.6-.87.68-.39 1.33-.39.87 0 1.29.65l1.98 2.52q-1.14 1.34-2.57 2.25-1.43.91-2.98 1.46-1.56.54-3.17.77-1.61.22-3.12.22-3 0-5.57-.99-2.58-1-4.48-2.94-1.91-1.95-3-4.82t-1.09-6.65q0-2.94.95-5.53.95-2.59 2.73-4.51t4.34-3.04q2.56-1.12 5.78-1.12 2.72 0 5.02.87 2.29.87 3.94 2.54 1.66 1.66 2.59 4.08.94 2.43.94 5.53 0 1.57-.33 2.12-.34.54-1.29.54Zm21.98 6.08v-4.84q-3 .14-5.04.51-2.05.38-3.28.97t-1.76 1.37q-.53.79-.53 1.71 0 1.82 1.07 2.6 1.08.79 2.82.79 2.13 0 3.68-.77 1.55-.77 3.04-2.34Zm-14.62-15.09-1.23-2.21q4.96-4.54 11.93-4.54 2.52 0 4.51.83 1.98.82 3.36 2.29 1.37 1.47 2.08 3.52.72 2.04.72 4.48v18.14h-3.14q-.98 0-1.51-.29-.53-.3-.84-1.19l-.62-2.08q-1.09.98-2.13 1.73-1.03.74-2.15 1.24-1.12.51-2.4.77-1.27.27-2.81.27-1.82 0-3.36-.49-1.54-.49-2.66-1.47t-1.74-2.44q-.61-1.45-.61-3.39 0-1.09.36-2.17.37-1.07 1.19-2.05.83-.98 2.14-1.85 1.32-.87 3.24-1.51 1.92-.65 4.46-1.05 2.55-.41 5.83-.49v-1.68q0-2.89-1.23-4.27-1.24-1.39-3.56-1.39-1.68 0-2.79.39-1.1.39-1.94.88-.84.49-1.53.89-.68.39-1.52.39-.73 0-1.24-.38-.5-.38-.81-.88Zm45.89 14v-12.88q-1.17-1.43-2.56-2.02-1.38-.59-2.98-.59-1.57 0-2.83.59t-2.15 1.78q-.9 1.19-1.38 3.02-.47 1.84-.47 4.33 0 2.52.4 4.27.41 1.75 1.17 2.86.75 1.1 1.84 1.59 1.1.49 2.44.49 2.16 0 3.67-.89 1.51-.9 2.85-2.55Zm0-33.1h6.92v41.61h-4.23q-1.37 0-1.73-1.26l-.59-2.77q-1.74 1.99-3.99 3.22-2.26 1.23-5.25 1.23-2.35 0-4.31-.98-1.96-.98-3.38-2.84-1.41-1.86-2.18-4.61-.77-2.74-.77-6.27 0-3.19.87-5.94.86-2.74 2.49-4.76 1.62-2.01 3.89-3.15 2.27-1.13 5.1-1.13 2.4 0 4.11.76 1.71.75 3.05 2.04v-15.15Zm32.85 15.99-1.57 2.49q-.28.45-.59.63-.31.18-.78.18-.51 0-1.08-.28-.57-.28-1.33-.63-.76-.35-1.72-.63-.97-.28-2.28-.28-2.05 0-3.21.87-1.16.87-1.16 2.27 0 .92.6 1.55t1.6 1.11q.99.48 2.25.85 1.26.38 2.56.83 1.3.45 2.56 1.02 1.26.58 2.26 1.46.99.88 1.59 2.11.61 1.23.61 2.97 0 2.07-.75 3.82-.74 1.75-2.19 3.03-1.46 1.27-3.6 1.98-2.14.72-4.94.72-1.49 0-2.9-.27-1.42-.26-2.72-.74-1.3-.48-2.41-1.12-1.1-.64-1.94-1.4l1.59-2.63q.31-.48.73-.73t1.07-.25q.64 0 1.21.36.58.37 1.33.79.76.42 1.78.78 1.02.36 2.59.36 1.23 0 2.12-.29.88-.29 1.45-.77.58-.48.84-1.11.27-.63.27-1.3 0-1.01-.6-1.65-.61-.64-1.6-1.12-.99-.48-2.27-.85-1.27-.38-2.6-.83-1.33-.45-2.61-1.05-1.27-.6-2.26-1.53-1-.92-1.6-2.26-.6-1.35-.6-3.25 0-1.77.7-3.36.7-1.6 2.06-2.79 1.35-1.19 3.38-1.9 2.03-.72 4.69-.72 2.97 0 5.41.98 2.43.98 4.06 2.58Zm12.43-15.99v15.96q1.68-1.57 3.7-2.55 2.01-.98 4.73-.98 2.35 0 4.17.8 1.82.8 3.04 2.24 1.22 1.44 1.85 3.45.63 2 .63 4.41v18.28h-6.92V152.3q0-2.64-1.2-4.08-1.21-1.44-3.67-1.44-1.79 0-3.36.81-1.57.81-2.97 2.21v20.78h-6.92v-41.61h6.92Zm37.38 12.43q3.19 0 5.81 1.04 2.62 1.04 4.48 2.94 1.86 1.9 2.87 4.65 1.01 2.74 1.01 6.13 0 3.42-1.01 6.16t-2.87 4.68q-1.86 1.93-4.48 2.96-2.62 1.04-5.81 1.04-3.22 0-5.85-1.04-2.63-1.03-4.5-2.96-1.86-1.94-2.88-4.68-1.02-2.74-1.02-6.16 0-3.39 1.02-6.13 1.02-2.75 2.88-4.65 1.87-1.9 4.5-2.94t5.85-1.04Zm0 24.28q3.58 0 5.31-2.41 1.72-2.41 1.72-7.05 0-4.65-1.72-7.09-1.73-2.43-5.31-2.43-3.64 0-5.39 2.45-1.75 2.45-1.75 7.07t1.75 7.04q1.75 2.42 5.39 2.42Zm29.04 5.35q-3.76 0-5.76-2.12-2-2.11-2-5.83v-16.05h-2.94q-.56 0-.95-.36-.39-.37-.39-1.09v-2.75l4.62-.75 1.45-7.84q.14-.56.53-.87.4-.31 1.01-.31h3.59v9.04h7.67v4.93h-7.67v15.57q0 1.34.65 2.1.66.76 1.81.76.64 0 1.08-.16.43-.15.75-.32.33-.17.58-.32.25-.16.5-.16.31 0 .51.16.19.15.42.46l2.07 3.36q-1.51 1.26-3.47 1.9-1.96.65-4.06.65Z"/></svg>