<svg xmlns="http://www.w3.org/2000/svg" width="299.4608mm" height="73.95742mm" viewBox="0 0 848.86527 209.64307"><title>Risorsa 29</title><g id="Livello_2" data-name="Livello 2"><g id="Livello_1-2" data-name="Livello 1"><path d="M517.27268,79.64272h-26.212l.04275,49.04508c0,14.33211-6.14488,25.92692-20.477,25.92692-14.33924,0-20.54118-11.59481-20.54118-25.92692V79.68906H423.94092l-.00712,48.99874c0,28.32213,18.20655,51.27636,46.53222,51.27636,28.3185,0,46.79948-22.95423,46.79948-51.27636Z" style="fill:#009cde"/><rect x="753.63164" y="49.75652" width="26.08367" height="127.67755" style="fill:#009cde"/><polygon points="798.974 54.467 798.974 49.88 819.301 49.88 819.301 54.467 811.866 54.467 811.866 74.684 806.413 74.684 806.413 54.467 798.974 54.467" style="fill:#009cde"/><polygon points="829.825 49.88 835.627 66.936 835.695 66.936 841.181 49.88 848.865 49.88 848.865 74.684 843.758 74.684 843.758 57.105 843.686 57.105 837.609 74.684 833.403 74.684 827.326 57.28 827.255 57.28 827.255 74.684 822.151 74.684 822.151 49.88 829.825 49.88" style="fill:#009cde"/><path d="M402.61924,78.57662c-22.48375-5.18962-36.66617,17.148-37.25785,18.34557-.28871.58814-.2994.93035-1.29384.90533-.82337-.01773-.916-.90533-.916-.90533l-2.79085-17.08726H336.993v97.51614h26.19418v-52.784c0-4.3128,11.61257-24.993,34.11767-19.67153,11.38087,2.69467,16.21054,7.52436,16.21054,7.52436V82.71125a41.85,41.85,0,0,0-10.89612-4.13463" style="fill:#009cde"/><path d="M578.204,103.28484a26.13539,26.13539,0,1,1-26.13,26.13,26.13748,26.13748,0,0,1,26.13-26.13m-25.3886,106.1846V174.38229l.00713.00718.00712-13.14169s.03922-1.05141.98729-1.06218c.84475-.01066,1.03369.549,1.24041,1.06218,1.9853,4.94369,12.90641,23.76689,37.14374,17.86435a51.631,51.631,0,1,0-65.64764-49.69729v80.0546Z" style="fill:#009cde"/><path d="M717.528,129.41517a26.13539,26.13539,0,1,1-26.1336-26.13,26.139,26.139,0,0,1,26.1336,26.13m-.745,47.9793h26.2619v-47.9793A51.62918,51.62918,0,1,0,677.39726,179.109c24.23738,5.906,35.15844-12.92066,37.14374-17.86087.20673-.5132.39208-1.07284,1.24041-1.06566.94808.01425.98729,1.06566.98729,1.06566" style="fill:#009cde"/><path d="M262.05635,71.80411h-10.529v83.266l10.81416.278c22.18076,0,36.46657-2.01733,36.46657-41.90208,0-38.24519-12.61057-41.642-36.75172-41.642m-7.1108,105.38619H225.1514V49.70528h31.96836c38.70852,0,68.06784,7.10374,68.06784,63.74083,0,56.09518-31.09871,63.74419-70.242,63.74419" style="fill:#009cde"/><path d="M113.23751,44.65282C98.48587,29.90815,84.41139,15.85235,80.22264,0c-4.189,15.85235-18.2657,29.90815-33.01488,44.65282C25.08388,66.76273,0,91.821,0,129.404a80.225,80.225,0,1,0,160.45,0c0-37.58059-25.08182-62.64129-47.21247-84.7512M34.09813,148.09776c-4.91906-.167-23.07334-31.45844,10.60577-64.776l22.28681,24.34455a1.90506,1.90506,0,0,1-.14877,2.84284c-5.31818,5.45443-27.98563,28.18529-30.803,36.04508-.58153,1.62231-1.43086,1.56095-1.94078,1.54351m46.127,41.24115a27.59124,27.59124,0,0,1-27.59144-27.59143,28.75082,28.75082,0,0,1,6.87709-18.22487c4.97508-6.08357,20.71065-23.19419,20.71065-23.19419s15.49468,17.36179,20.67352,23.13612a26.98291,26.98291,0,0,1,6.92161,18.28294A27.5915,27.5915,0,0,1,80.2251,189.33891M133.035,144.5954c-.59467,1.30056-1.94367,3.47179-3.7644,3.53806-3.24545.1182-3.59224-1.54474-5.991-5.09491C118.01313,135.245,72.053,87.21136,63.45654,77.92172c-7.56142-8.17066-1.06478-13.931,1.94879-16.94973,3.78082-3.78759,14.81689-14.81691,14.81689-14.81691s32.90694,31.222,46.61473,52.55528,8.98367,39.79326,6.19808,45.885" style="fill:#009cde"/></g></g></svg>